<svg width="30" height="30" viewBox="0 0 30 30" fill="none" xmlns="http://www.w3.org/2000/svg">
<path opacity="0.4" fill-rule="evenodd" clip-rule="evenodd" d="M19.8224 9.44541C19.8451 9.61204 19.8666 9.76899 19.878 9.97671L7.86261 21.9907H7.58472C5.82475 21.9907 4.54116 20.747 4.30297 18.8152C4.03831 16.8834 4.09125 13.5756 4.30297 11.8159C4.5544 9.98995 5.90415 8.73297 7.58472 8.73297H9.874L14.2408 5.1592C14.7702 4.71066 15.7097 4.28726 16.4375 4.27271C17.7608 4.27271 18.9782 5.20022 19.4149 6.68212C19.5869 7.30267 19.6531 7.92586 19.706 8.51995L19.8119 9.36807C19.8154 9.39422 19.8189 9.41993 19.8224 9.44541ZM18.6009 17.1643C18.7809 16.9884 19.1792 16.864 19.3592 16.909C19.8461 17.0334 19.9401 17.7306 19.9335 18.2784C19.911 19.8688 19.8567 20.975 19.772 21.659L19.7125 22.2227L19.7114 22.2332C19.6549 22.8002 19.5963 23.3869 19.4293 24.0129C18.9873 25.4921 17.8056 26.4527 16.4638 26.4527C16.4188 26.4527 16.3752 26.4527 16.3302 26.4514C15.5891 26.4514 14.7832 26.0068 14.3267 25.6191L12.7004 24.3608C12.0837 23.9017 12.265 23.1674 12.6117 22.7427C12.8706 22.4266 15.9803 19.5726 17.6151 18.0722C18.1702 17.5627 18.5553 17.2093 18.6009 17.1643Z" fill="url(#paint0_linear_169_29711)"/>
<path d="M27.1594 4.08723C26.6923 3.63605 25.9751 3.63869 25.5252 4.08856L4.08794 25.5232C3.6367 25.9744 3.6367 26.6929 4.09191 27.1652C4.3248 27.3809 4.61328 27.5 4.90573 27.5C5.20479 27.5 5.51179 27.3743 5.72484 27.1613L27.1607 5.72659C27.6133 5.27408 27.6133 4.54107 27.1594 4.08723" fill="url(#paint1_linear_169_29711)"/>
<defs>
<linearGradient id="paint0_linear_169_29711" x1="4.12378" y1="2.91078" x2="22.5879" y2="4.94993" gradientUnits="userSpaceOnUse">
<stop stop-color="#53E88B"/>
<stop offset="1" stop-color="#15BE77"/>
</linearGradient>
<linearGradient id="paint1_linear_169_29711" x1="3.75" y1="2.29167" x2="31.1671" y2="6.53955" gradientUnits="userSpaceOnUse">
<stop stop-color="#53E88B"/>
<stop offset="1" stop-color="#15BE77"/>
</linearGradient>
</defs>
</svg>

