<svg width="13" height="18" viewBox="0 0 13 18" fill="none" xmlns="http://www.w3.org/2000/svg">
<path d="M12.3571 3.45056C12.3068 2.96422 12.2543 2.45963 12.1254 1.95611C11.7741 0.75153 10.801 9.59513e-06 9.75762 9.59513e-06C9.17565 -0.00213761 8.43954 0.356445 8.0222 0.719322L4.56287 3.61697H2.75194C1.41918 3.61697 0.347511 4.6444 0.145131 6.12705C-0.0268386 7.55064 -0.0687825 10.2379 0.145131 11.8042C0.330733 13.3706 1.35416 14.383 2.75194 14.383H4.56287L8.08931 17.3236C8.45107 17.6382 9.08967 17.9989 9.67688 17.9989C9.71463 18 9.74819 18 9.78174 18C10.845 18 11.7814 17.2206 12.1327 16.0192C12.2659 15.5082 12.312 15.0293 12.3571 14.5666L12.4043 14.1082C12.5846 12.6213 12.5846 5.36908 12.4043 3.89288L12.3571 3.45056Z" fill="url(#paint0_linear_609_144)"/>
<defs>
<linearGradient id="paint0_linear_609_144" x1="-1.77817e-08" y1="-1.10526" x2="14.6525" y2="0.47625" gradientUnits="userSpaceOnUse">
<stop stop-color="#53E88B"/>
<stop offset="1" stop-color="#15BE77"/>
</linearGradient>
</defs>
</svg>
